<svg xmlns="http://www.w3.org/2000/svg" xmlns:xlink="http://www.w3.org/1999/xlink" viewBox="0 0 1080 1080"
    width="1080" height="1080" preserveAspectRatio="xMidYMid meet"
    style="width: 100%; height: 100%; transform: translate3d(0px, 0px, 0px); content-visibility: visible;">
    <defs>
      <clipPath id="__lottie_element_2">
        <rect width="1080" height="1080" x="0" y="0"></rect>
      </clipPath>
    </defs>
    <g clip-path="url(#__lottie_element_2)">
      <g transform="matrix(14.701839447021484,0,0,14.701839447021484,-8724.453125,-594.8938598632812)" opacity="1"
        style="display: block;">
        <g opacity="1" transform="matrix(1,0,0,1,0,0)">
          <animateTransform attributeName="transform" type="rotate" from="0 621.914 73.595" to="360 621.914 73.595"
            dur="2s" repeatCount="indefinite" />

          <g opacity="1" transform="matrix(1,0,0,1,621.9130249023438,73.59600067138672)"></g>
          <g opacity="1" transform="matrix(1,0,0,1,621.9140014648438,73.59500122070312)">
            <path fill="rgb(107, 115, 141)" fill-opacity="1"
              d=" M12.317000389099121,4.169000148773193 C12.64900016784668,3.193000078201294 12.864999771118164,2.1679999828338623 12.95300006866455,1.1119999885559082 C12.95300006866455,1.1119999885559082 10.845999717712402,0.09099999815225601 10.845999717712402,0.09099999815225601 C10.847999572753906,-0.25099998712539673 10.836000442504883,-0.5950000286102295 10.805000305175781,-0.9409999847412109 C10.795999526977539,-1.0609999895095825 10.781000137329102,-1.1770000457763672 10.767000198364258,-1.2960000038146973 C10.767000198364258,-1.2960000038146973 12.74899959564209,-2.5490000247955322 12.74899959564209,-2.5490000247955322 C12.543000221252441,-3.5899999141693115 12.21500015258789,-4.585000038146973 11.779000282287598,-5.513999938964844 C11.779000282287598,-5.513999938964844 9.437999725341797,-5.343999862670898 9.437999725341797,-5.343999862670898 C9.208999633789062,-5.75 8.95300006866455,-6.138999938964844 8.675999641418457,-6.507999897003174 C8.675999641418457,-6.507999897003174 9.765999794006348,-8.581999778747559 9.765999794006348,-8.581999778747559 C9.07800006866455,-9.364999771118164 8.295999526977539,-10.064000129699707 7.440999984741211,-10.663000106811523 C7.440999984741211,-10.663000106811523 5.499000072479248,-9.345999717712402 5.499000072479248,-9.345999717712402 C5.10099983215332,-9.579999923706055 4.688000202178955,-9.791999816894531 4.258999824523926,-9.97599983215332 C4.258999824523926,-9.97599983215332 4.166999816894531,-12.315999984741211 4.166999816894531,-12.315999984741211 C3.190999984741211,-12.647000312805176 2.1659998893737793,-12.86299991607666 1.1119999885559082,-12.954000473022461 C1.1119999885559082,-12.954000473022461 0.09000000357627869,-10.845000267028809 0.09000000357627869,-10.845000267028809 C-0.25099998712539673,-10.847999572753906 -0.593999981880188,-10.835000038146973 -0.9409999847412109,-10.805000305175781 C-1.0609999895095825,-10.795000076293945 -1.1790000200271606,-10.779000282287598 -1.2970000505447388,-10.765000343322754 C-1.2970000505447388,-10.765000343322754 -2.5480000972747803,-12.75 -2.5480000972747803,-12.75 C-3.5899999141693115,-12.541999816894531 -4.585000038146973,-12.21399974822998 -5.514999866485596,-11.779000282287598 C-5.514999866485596,-11.779000282287598 -5.343999862670898,-9.437000274658203 -5.343999862670898,-9.437000274658203 C-5.749000072479248,-9.208000183105469 -6.139999866485596,-8.954000473022461 -6.507999897003174,-8.675000190734863 C-6.507999897003174,-8.675000190734863 -8.583000183105469,-9.765999794006348 -8.583000183105469,-9.765999794006348 C-9.366999626159668,-9.076000213623047 -10.065999984741211,-8.295000076293945 -10.661999702453613,-7.439000129699707 C-10.661999702453613,-7.439000129699707 -9.345000267028809,-5.498000144958496 -9.345000267028809,-5.498000144958496 C-9.581000328063965,-5.099999904632568 -9.793000221252441,-4.685999870300293 -9.97599983215332,-4.258999824523926 C-9.97599983215332,-4.258999824523926 -12.317000389099121,-4.166999816894531 -12.317000389099121,-4.166999816894531 C-12.64799976348877,-3.190999984741211 -12.86299991607666,-2.1670000553131104 -12.95300006866455,-1.1100000143051147 C-12.95300006866455,-1.1100000143051147 -10.843999862670898,-0.09000000357627869 -10.843999862670898,-0.09000000357627869 C-10.845999717712402,0.25200000405311584 -10.836000442504883,0.5960000157356262 -10.805999755859375,0.9419999718666077 C-10.795000076293945,1.062000036239624 -10.779999732971191,1.1790000200271606 -10.763999938964844,1.2979999780654907 C-10.763999938964844,1.2979999780654907 -12.74899959564209,2.549999952316284 -12.74899959564209,2.549999952316284 C-12.539999961853027,3.5910000801086426 -12.21399974822998,4.585000038146973 -11.777999877929688,5.514999866485596 C-11.777999877929688,5.514999866485596 -9.437000274658203,5.34499979019165 -9.437000274658203,5.34499979019165 C-9.206999778747559,5.75 -8.954000473022461,6.138999938964844 -8.675999641418457,6.508999824523926 C-8.675999641418457,6.508999824523926 -9.765999794006348,8.581999778747559 -9.765999794006348,8.581999778747559 C-9.07699966430664,9.368000030517578 -8.293999671936035,10.065999984741211 -7.440000057220459,10.663000106811523 C-7.440000057220459,10.663000106811523 -5.499000072479248,9.347000122070312 -5.499000072479248,9.347000122070312 C-5.099999904632568,9.583999633789062 -4.685999870300293,9.793999671936035 -4.258999824523926,9.97700023651123 C-4.258999824523926,9.97700023651123 -4.166999816894531,12.317999839782715 -4.166999816894531,12.317999839782715 C-3.190999984741211,12.64900016784668 -2.1689999103546143,12.864999771118164 -1.1130000352859497,12.954000473022461 C-1.1130000352859497,12.954000473022461 -0.08900000154972076,10.845999717712402 -0.08900000154972076,10.845999717712402 C0.25099998712539673,10.847999572753906 0.5960000157356262,10.836000442504883 0.9419999718666077,10.805999755859375 C1.0609999895095825,10.795999526977539 1.1790000200271606,10.779999732971191 1.2960000038146973,10.765000343322754 C1.2960000038146973,10.765000343322754 2.5480000972747803,12.751999855041504 2.5480000972747803,12.751999855041504 C3.5910000801086426,12.543000221252441 4.584000110626221,12.217000007629395 5.514999866485596,11.781999588012695 C5.514999866485596,11.781999588012695 5.3460001945495605,9.439000129699707 5.3460001945495605,9.439000129699707 C5.75,9.208000183105469 6.138999938964844,8.954000473022461 6.510000228881836,8.677000045776367 C6.510000228881836,8.677000045776367 8.583000183105469,9.767999649047852 8.583000183105469,9.767999649047852 C9.366000175476074,9.07800006866455 10.064000129699707,8.29699993133545 10.661999702453613,7.440999984741211 C10.661999702453613,7.440999984741211 9.347000122070312,5.5 9.347000122070312,5.5 C9.581000328063965,5.10099983215332 9.791999816894531,4.688000202178955 9.97700023651123,4.260000228881836 C9.97700023651123,4.260000228881836 12.317000389099121,4.169000148773193 12.317000389099121,4.169000148773193z M0.0010000000474974513,7.644999980926514 C-4.215000152587891,7.644999980926514 -7.644000053405762,4.216000080108643 -7.644000053405762,0.0010000000474974513 C-7.644000053405762,-4.214000225067139 -4.215000152587891,-7.64300012588501 0.0010000000474974513,-7.64300012588501 C4.215000152587891,-7.64300012588501 7.644000053405762,-4.214000225067139 7.644000053405762,0.0010000000474974513 C7.644000053405762,4.216000080108643 4.215000152587891,7.644999980926514 0.0010000000474974513,7.644999980926514z">
            </path>
          </g>
          <g opacity="1" transform="matrix(1,0,0,1,621.9140014648438,73.59500122070312)">
            <path fill="rgb(107, 115, 141)" fill-opacity="1"
              d=" M-7.0970001220703125,0 C-7.0970001220703125,3.9130001068115234 -3.9149999618530273,7.0980000495910645 0,7.0980000495910645 C3.9140000343322754,7.0980000495910645 7.0970001220703125,3.9130001068115234 7.0970001220703125,0 C7.0970001220703125,-3.9140000343322754 3.9140000343322754,-7.0980000495910645 0,-7.0980000495910645 C-3.9149999618530273,-7.0980000495910645 -7.0970001220703125,-3.9140000343322754 -7.0970001220703125,0z M5.3420000076293945,-0.4659999907016754 C5.598999977111816,2.4860000610351562 3.4159998893737793,5.085999965667725 0.4659999907016754,5.3420000076293945 C-2.4839999675750732,5.599999904632568 -5.085000038146973,3.4149999618530273 -5.3429999351501465,0.4659999907016754 C-5.5980000495910645,-2.4839999675750732 -3.4159998893737793,-5.085000038146973 -0.4659999907016754,-5.341000080108643 C2.484999895095825,-5.598999977111816 5.086999893188477,-3.4149999618530273 5.3420000076293945,-0.4659999907016754z">
            </path>
          </g>
          <g opacity="1" transform="matrix(1,0,0,1,621.9140014648438,73.59600067138672)">
            <path fill="rgb(148, 159, 179)" fill-opacity="1"
              d=" M-7.644000053405762,0 C-7.644000053405762,4.215000152587891 -4.216000080108643,7.644000053405762 0,7.644000053405762 C4.214000225067139,7.644000053405762 7.644000053405762,4.215000152587891 7.644000053405762,0 C7.644000053405762,-4.215000152587891 4.214000225067139,-7.644000053405762 0,-7.644000053405762 C-4.216000080108643,-7.644000053405762 -7.644000053405762,-4.215000152587891 -7.644000053405762,0z M7.0970001220703125,0 C7.0970001220703125,3.9130001068115234 3.9140000343322754,7.0980000495910645 0,7.0980000495910645 C-3.9149999618530273,7.0980000495910645 -7.0970001220703125,3.9130001068115234 -7.0970001220703125,0 C-7.0970001220703125,-3.9140000343322754 -3.9149999618530273,-7.0980000495910645 0,-7.0980000495910645 C3.9140000343322754,-7.0980000495910645 7.0970001220703125,-3.9140000343322754 7.0970001220703125,0z">
            </path>
          </g>
        </g>
        <g opacity="1" transform="matrix(1,0,0,1,0,0)">
          <animateTransform attributeName="transform" type="rotate" from="0 641.529 83.924" to="-360 641.529 83.924"
            dur="2s" repeatCount="indefinite" />

          <g opacity="1" transform="matrix(1,0,0,1,641.5449829101562,83.822998046875)"></g>
          <g opacity="1" transform="matrix(1,0,0,1,641.5289916992188,83.92400360107422)">
            <path fill="rgb(107, 115, 141)" fill-opacity="1"
              d=" M-6.081999778747559,-0.12800000607967377 C-6.1519999504089355,3.2260000705718994 -3.4800000190734863,6.01200008392334 -0.12700000405311584,6.081999778747559 C3.2269999980926514,6.1529998779296875 6.01200008392334,3.4809999465942383 6.081999778747559,0.12800000607967377 C6.1529998779296875,-3.2260000705718994 3.4820001125335693,-6.01200008392334 0.12700000405311584,-6.081999778747559 C-3.2269999980926514,-6.1519999504089355 -6.01200008392334,-3.4820001125335693 -6.081999778747559,-0.12800000607967377z M3.2039999961853027,-1.9910000562667847 C4.248000144958496,-0.22699999809265137 3.6640000343322754,2.049999952316284 1.899999976158142,3.0940001010894775 C0.11299999803304672,4.150000095367432 -2.197000026702881,3.5380001068115234 -3.2230000495910645,1.7230000495910645 C-4.184999942779541,0.01899999938905239 -3.6089999675750732,-2.2249999046325684 -1.944000005722046,-3.25600004196167 C-0.17100000381469727,-4.354000091552734 2.1470000743865967,-3.7739999294281006 3.2039999961853027,-1.9910000562667847z">
            </path>
          </g>
          <g opacity="1" transform="matrix(1,0,0,1,641.5289916992188,83.92400360107422)">
            <path fill="rgb(107, 115, 141)" fill-opacity="1"
              d=" M9.776000022888184,0.9639999866485596 C9.845000267028809,0.25600001215934753 9.838000297546387,-0.4560000002384186 9.753999710083008,-1.1699999570846558 C9.753999710083008,-1.1699999570846558 8.098999977111816,-1.565999984741211 8.098999977111816,-1.565999984741211 C8.01200008392334,-2 7.888999938964844,-2.433000087738037 7.734000205993652,-2.8570001125335693 C7.734000205993652,-2.8570001125335693 8.946999549865723,-4.053999900817871 8.946999549865723,-4.053999900817871 C8.800999641418457,-4.375999927520752 8.63599967956543,-4.692999839782715 8.45199966430664,-5.002999782562256 C8.270000457763672,-5.311999797821045 8.071999549865723,-5.607999801635742 7.859000205993652,-5.890999794006348 C7.859000205993652,-5.890999794006348 6.22599983215332,-5.4029998779296875 6.22599983215332,-5.4029998779296875 C5.928999900817871,-5.744999885559082 5.610000133514404,-6.059999942779541 5.269000053405762,-6.3429999351501465 C5.269000053405762,-6.3429999351501465 5.7210001945495605,-7.984000205993652 5.7210001945495605,-7.984000205993652 C5.13700008392334,-8.401000022888184 4.513999938964844,-8.75100040435791 3.8610000610351562,-9.031000137329102 C3.8610000610351562,-9.031000137329102 2.688999891281128,-7.790999889373779 2.688999891281128,-7.790999889373779 C2.2669999599456787,-7.936999797821045 1.8320000171661377,-8.04800033569336 1.3930000066757202,-8.125 C1.3930000066757202,-8.125 0.9599999785423279,-9.777000427246094 0.9599999785423279,-9.777000427246094 C0.2540000081062317,-9.845000267028809 -0.46000000834465027,-9.838000297546387 -1.1699999570846558,-9.75100040435791 C-1.1699999570846558,-9.75100040435791 -1.569000005722046,-8.095999717712402 -1.569000005722046,-8.095999717712402 C-2.003000020980835,-8.01200008392334 -2.433000087738037,-7.888999938964844 -2.8570001125335693,-7.73199987411499 C-2.8570001125335693,-7.73199987411499 -4.054999828338623,-8.944000244140625 -4.054999828338623,-8.944000244140625 C-4.374000072479248,-8.800000190734863 -4.693999767303467,-8.63700008392334 -5.002999782562256,-8.45199966430664 C-5.313000202178955,-8.270000457763672 -5.609000205993652,-8.071000099182129 -5.890999794006348,-7.861000061035156 C-5.890999794006348,-7.861000061035156 -5.40500020980835,-6.224999904632568 -5.40500020980835,-6.224999904632568 C-5.745999813079834,-5.927999973297119 -6.059999942779541,-5.610000133514404 -6.343999862670898,-5.269000053405762 C-6.343999862670898,-5.269000053405762 -7.986000061035156,-5.718999862670898 -7.986000061035156,-5.718999862670898 C-8.404000282287598,-5.13700008392334 -8.753000259399414,-4.513999938964844 -9.032999992370605,-3.86299991607666 C-9.032999992370605,-3.86299991607666 -7.794000148773193,-2.688999891281128 -7.794000148773193,-2.688999891281128 C-7.940000057220459,-2.2660000324249268 -8.04699993133545,-1.8320000171661377 -8.125,-1.3930000066757202 C-8.125,-1.3930000066757202 -9.774999618530273,-0.9599999785423279 -9.774999618530273,-0.9599999785423279 C-9.845000267028809,-0.2540000081062317 -9.838000297546387,0.46000000834465027 -9.753000259399414,1.1720000505447388 C-9.753000259399414,1.1720000505447388 -8.095999717712402,1.5670000314712524 -8.095999717712402,1.5670000314712524 C-8.01099967956543,2.003000020980835 -7.889999866485596,2.433000087738037 -7.735000133514404,2.8589999675750732 C-7.735000133514404,2.8589999675750732 -8.946999549865723,4.056000232696533 -8.946999549865723,4.056000232696533 C-8.802000045776367,4.377999782562256 -8.637999534606934,4.693999767303467 -8.454000473022461,5.001999855041504 C-8.270000457763672,5.313000202178955 -8.072999954223633,5.609000205993652 -7.861999988555908,5.890999794006348 C-7.861999988555908,5.890999794006348 -6.2270002365112305,5.40500020980835 -6.2270002365112305,5.40500020980835 C-5.931000232696533,5.745999813079834 -5.609000205993652,6.059999942779541 -5.269999980926514,6.3429999351501465 C-5.269999980926514,6.3429999351501465 -5.718999862670898,7.986000061035156 -5.718999862670898,7.986000061035156 C-5.136000156402588,8.402999877929688 -4.514999866485596,8.753999710083008 -3.864000082015991,9.031000137329102 C-3.864000082015991,9.031000137329102 -2.688999891281128,7.793000221252441 -2.688999891281128,7.793000221252441 C-2.265000104904175,7.940000057220459 -1.8359999656677246,8.050999641418457 -1.3930000066757202,8.12600040435791 C-1.3930000066757202,8.12600040435791 -0.9610000252723694,9.777000427246094 -0.9610000252723694,9.777000427246094 C-0.25600001215934753,9.843999862670898 0.45899999141693115,9.83899974822998 1.1710000038146973,9.753999710083008 C1.1710000038146973,9.753999710083008 1.565000057220459,8.097999572753906 1.565000057220459,8.097999572753906 C2.000999927520752,8.013999938964844 2.431999921798706,7.890999794006348 2.8559999465942383,7.734000205993652 C2.8559999465942383,7.734000205993652 4.057000160217285,8.946999549865723 4.057000160217285,8.946999549865723 C4.375999927520752,8.803000450134277 4.692999839782715,8.638999938964844 5.002999782562256,8.454999923706055 C5.313000202178955,8.272000312805176 5.60699987411499,8.074000358581543 5.889999866485596,7.861000061035156 C5.889999866485596,7.861000061035156 5.4039998054504395,6.228000164031982 5.4039998054504395,6.228000164031982 C5.745999813079834,5.931000232696533 6.059999942779541,5.610000133514404 6.3429999351501465,5.270999908447266 C6.3429999351501465,5.270999908447266 7.986000061035156,5.7210001945495605 7.986000061035156,5.7210001945495605 C8.404000282287598,5.138000011444092 8.755000114440918,4.514999866485596 9.031000137329102,3.864000082015991 C9.031000137329102,3.864000082015991 7.791999816894531,2.688999891281128 7.791999816894531,2.688999891281128 C7.936999797821045,2.2690000534057617 8.050000190734863,1.8359999656677246 8.12600040435791,1.3949999809265137 C8.12600040435791,1.3949999809265137 9.776000022888184,0.9639999866485596 9.776000022888184,0.9639999866485596z M-0.1340000033378601,6.34499979019165 C-3.632999897003174,6.271999835968018 -6.419000148773193,3.365000009536743 -6.34499979019165,-0.1340000033378601 C-6.2729997634887695,-3.632999897003174 -3.367000102996826,-6.419000148773193 0.13300000131130219,-6.3460001945495605 C3.631999969482422,-6.2729997634887695 6.418000221252441,-3.365999937057495 6.3460001945495605,0.13300000131130219 C6.271999835968018,3.631999969482422 3.365999937057495,6.419000148773193 -0.1340000033378601,6.34499979019165z">
            </path>
          </g>
          <g opacity="1" transform="matrix(1,0,0,1,641.5289916992188,83.92400360107422)">
            <path fill="rgb(148, 159, 179)" fill-opacity="1"
              d=" M-6.3460001945495605,-0.13300000131130219 C-6.420000076293945,3.365999937057495 -3.632999897003174,6.271999835968018 -0.1340000033378601,6.34499979019165 C3.365999937057495,6.419000148773193 6.271999835968018,3.631999969482422 6.3460001945495605,0.13300000131130219 C6.418000221252441,-3.365999937057495 3.631999969482422,-6.2729997634887695 0.13300000131130219,-6.3460001945495605 C-3.367000102996826,-6.419000148773193 -6.27400016784668,-3.631999969482422 -6.3460001945495605,-0.13300000131130219z M6.081999778747559,0.12800000607967377 C6.01200008392334,3.4809999465942383 3.2260000705718994,6.1529998779296875 -0.12800000607967377,6.081999778747559 C-3.4809999465942383,6.01200008392334 -6.1529998779296875,3.2260000705718994 -6.083000183105469,-0.12800000607967377 C-6.013000011444092,-3.4820001125335693 -3.2279999256134033,-6.1519999504089355 0.12600000202655792,-6.081999778747559 C3.4809999465942383,-6.01200008392334 6.1529998779296875,-3.2260000705718994 6.081999778747559,0.12800000607967377z">
            </path>
          </g>
        </g>
      </g>
    </g>
  </svg>
